<svg width="30" height="30" viewBox="0 0 30 30" fill="none" xmlns="http://www.w3.org/2000/svg">
<path d="M23.925 24.375C26.1375 22.125 27.5 19.025 27.5 15.625C27.5 8.725 21.9 3.125 15 3.125C8.1 3.125 2.5 8.725 2.5 15.625C2.5 19.025 3.85 22.1 6.05 24.3625" stroke="#AB9AFF" stroke-width="1.5" stroke-miterlimit="10" stroke-linecap="round" stroke-linejoin="round"/>
<path d="M15 26.875C17.3334 26.875 19.225 24.9834 19.225 22.65C19.225 20.3166 17.3334 18.425 15 18.425C12.6666 18.425 10.775 20.3166 10.775 22.65C10.775 24.9834 12.6666 26.875 15 26.875Z" stroke="#AB9AFF" stroke-width="1.5" stroke-miterlimit="10" stroke-linecap="round" stroke-linejoin="round"/>
<path d="M19.0625 15H20C21.025 15 21.875 14.1625 21.875 13.125C21.875 12.1 21.025 11.25 20 11.25C18.975 11.25 18.125 12.0875 18.125 13.125V14.0625C18.125 14.575 18.55 15 19.0625 15Z" stroke="#AB9AFF" stroke-width="1.5" stroke-miterlimit="10" stroke-linecap="round" stroke-linejoin="round"/>
</svg>
