<svg width="30" height="30" viewBox="0 0 30 30" fill="none" xmlns="http://www.w3.org/2000/svg">
<path d="M20 10H10V20H20V10Z" stroke="#AB9AFF" stroke-width="1.5" stroke-linecap="round" stroke-linejoin="round"/>
<path d="M6.25 27.5C8.3125 27.5 10 25.8125 10 23.75V20H6.25C4.1875 20 2.5 21.6875 2.5 23.75C2.5 25.8125 4.1875 27.5 6.25 27.5Z" stroke="#AB9AFF" stroke-width="1.5" stroke-linecap="round" stroke-linejoin="round"/>
<path d="M6.25 10H10V6.25C10 4.1875 8.3125 2.5 6.25 2.5C4.1875 2.5 2.5 4.1875 2.5 6.25C2.5 8.3125 4.1875 10 6.25 10Z" stroke="#AB9AFF" stroke-width="1.5" stroke-linecap="round" stroke-linejoin="round"/>
<path d="M20 10H23.75C25.8125 10 27.5 8.3125 27.5 6.25C27.5 4.1875 25.8125 2.5 23.75 2.5C21.6875 2.5 20 4.1875 20 6.25V10Z" stroke="#AB9AFF" stroke-width="1.5" stroke-linecap="round" stroke-linejoin="round"/>
<path d="M23.75 27.5C25.8125 27.5 27.5 25.8125 27.5 23.75C27.5 21.6875 25.8125 20 23.75 20H20V23.75C20 25.8125 21.6875 27.5 23.75 27.5Z" stroke="#AB9AFF" stroke-width="1.5" stroke-linecap="round" stroke-linejoin="round"/>
</svg>
