<svg width="30" height="30" viewBox="0 0 30 30" fill="none" xmlns="http://www.w3.org/2000/svg">
<path d="M6.825 23.1125V19.4625C6.825 18.25 7.775 17.1625 9.125 17.1625C10.3375 17.1625 11.425 18.1125 11.425 19.4625V22.975C11.425 25.4125 9.4 27.4375 6.9625 27.4375C4.525 27.4375 2.5 25.4 2.5 22.975V15.275C2.3625 8.25 7.9125 2.5625 14.9375 2.5625C21.9625 2.5625 27.5 8.25 27.5 15.1375V22.8375C27.5 25.275 25.475 27.3 23.0375 27.3C20.6 27.3 18.575 25.275 18.575 22.8375V19.325C18.575 18.1125 19.525 17.025 20.875 17.025C22.0875 17.025 23.175 17.975 23.175 19.325V23.1125" stroke="#AB9AFF" stroke-width="1.5" stroke-linecap="round" stroke-linejoin="round"/>
</svg>
