<svg width="60" height="60" viewBox="0 0 60 60" fill="none" xmlns="http://www.w3.org/2000/svg">
<rect width="60" height="60" rx="30" fill="#D7CFFF"/>
<path d="M31.8288 36.25H28.1713C27.9867 36.2499 27.8087 36.1817 27.6712 36.0586C27.5338 35.9354 27.4466 35.7659 27.4263 35.5825L26.3425 25.8325C26.3309 25.7277 26.3415 25.6217 26.3737 25.5213C26.4058 25.4209 26.4588 25.3284 26.5291 25.2499C26.5994 25.1713 26.6854 25.1084 26.7816 25.0654C26.8779 25.0223 26.9821 25.0001 27.0875 25H32.9125C33.0179 25.0001 33.1221 25.0223 33.2184 25.0654C33.3146 25.1084 33.4006 25.1713 33.4709 25.2499C33.5412 25.3284 33.5942 25.4209 33.6263 25.5213C33.6585 25.6217 33.6691 25.7277 33.6575 25.8325L32.5738 35.5825C32.5535 35.7659 32.4662 35.9354 32.3288 36.0586C32.1913 36.1817 32.0133 36.2499 31.8288 36.25Z" stroke="#111111" stroke-width="1.5" stroke-linecap="round"/>
<path d="M20.625 23.75C21.4538 23.75 22.2487 23.4208 22.8347 22.8347C23.4208 22.2487 23.75 21.4538 23.75 20.625C23.75 19.7962 23.4208 19.0013 22.8347 18.4153C22.2487 17.8292 21.4538 17.5 20.625 17.5C19.7962 17.5 19.0013 17.8292 18.4153 18.4153C17.8292 19.0013 17.5 19.7962 17.5 20.625C17.5 21.4538 17.8292 22.2487 18.4153 22.8347C19.0013 23.4208 19.7962 23.75 20.625 23.75Z" stroke="#111111" stroke-width="1.5" stroke-miterlimit="1.5" stroke-linecap="round" stroke-linejoin="round"/>
<path d="M20.625 20.625L26.25 25M20.625 39.375L26.875 34.375M39.375 20.625L33.75 25M39.375 39.375L33.125 34.375" stroke="#111111" stroke-width="1.5" stroke-linecap="round" stroke-linejoin="round"/>
<path d="M20.625 42.5C21.4538 42.5 22.2487 42.1708 22.8347 41.5847C23.4208 40.9987 23.75 40.2038 23.75 39.375C23.75 38.5462 23.4208 37.7513 22.8347 37.1653C22.2487 36.5792 21.4538 36.25 20.625 36.25C19.7962 36.25 19.0013 36.5792 18.4153 37.1653C17.8292 37.7513 17.5 38.5462 17.5 39.375C17.5 40.2038 17.8292 40.9987 18.4153 41.5847C19.0013 42.1708 19.7962 42.5 20.625 42.5ZM39.375 23.75C40.2038 23.75 40.9987 23.4208 41.5847 22.8347C42.1708 22.2487 42.5 21.4538 42.5 20.625C42.5 19.7962 42.1708 19.0013 41.5847 18.4153C40.9987 17.8292 40.2038 17.5 39.375 17.5C38.5462 17.5 37.7513 17.8292 37.1653 18.4153C36.5792 19.0013 36.25 19.7962 36.25 20.625C36.25 21.4538 36.5792 22.2487 37.1653 22.8347C37.7513 23.4208 38.5462 23.75 39.375 23.75ZM39.375 42.5C40.2038 42.5 40.9987 42.1708 41.5847 41.5847C42.1708 40.9987 42.5 40.2038 42.5 39.375C42.5 38.5462 42.1708 37.7513 41.5847 37.1653C40.9987 36.5792 40.2038 36.25 39.375 36.25C38.5462 36.25 37.7513 36.5792 37.1653 37.1653C36.5792 37.7513 36.25 38.5462 36.25 39.375C36.25 40.2038 36.5792 40.9987 37.1653 41.5847C37.7513 42.1708 38.5462 42.5 39.375 42.5Z" stroke="#111111" stroke-width="1.5" stroke-miterlimit="1.5" stroke-linecap="round" stroke-linejoin="round"/>
</svg>
