<svg width="60" height="60" viewBox="0 0 60 60" fill="none" xmlns="http://www.w3.org/2000/svg">
<rect width="60" height="60" rx="30" fill="#D7CFFF"/>
<g clip-path="url(#clip0_4_9260)">
<path d="M15.75 18.75C15.5511 18.75 15.3603 18.829 15.2197 18.9697C15.079 19.1103 15 19.3011 15 19.5V40.5C15 40.6989 15.079 40.8897 15.2197 41.0303C15.3603 41.171 15.5511 41.25 15.75 41.25H44.25C44.4489 41.25 44.6397 41.171 44.7803 41.0303C44.921 40.8897 45 40.6989 45 40.5V19.5C45 19.3011 44.921 19.1103 44.7803 18.9697C44.6397 18.829 44.4489 18.75 44.25 18.75H15.75ZM16.5 22.25C16.5 21.1454 17.3954 20.25 18.5 20.25H28.2766C29.0192 20.25 29.62 20.8543 29.6157 21.5969C29.6143 21.8364 29.5487 22.0711 29.4258 22.2766L24.9133 29.8199C24.7151 30.1513 24.4252 30.4182 24.0786 30.5884L19.3816 32.895C18.0527 33.5476 16.5 32.5803 16.5 31.0998V22.25ZM30.5169 21.491C30.5209 20.8044 31.0786 20.25 31.7651 20.25H41.5C42.6046 20.25 43.5 21.1454 43.5 22.25V26.1127C43.5 27.2054 42.6231 28.0958 41.5306 28.1125L36.6633 28.1869C36.0576 28.1961 35.4804 27.9304 35.0936 27.4643L30.8045 22.2954C30.617 22.0695 30.5151 21.7846 30.5169 21.491ZM28.6512 25.3222C29.3572 24.1409 31.0175 24.009 31.9012 25.0639L34.176 27.7794C34.6794 28.3804 34.7853 29.22 34.4468 29.9271L33.7077 31.4715C33.4184 32.0759 32.8456 32.4954 32.182 32.5886L30.8776 32.7719C30.4781 32.8281 30.071 32.7621 29.7096 32.5826L27.4838 31.4772C26.4398 30.9587 26.0586 29.6607 26.6566 28.66L28.6512 25.3222ZM41.4806 29.0479C42.5927 29.0371 43.5 29.9357 43.5 31.0478V38.2045C43.5 39.0581 42.8081 39.75 41.9545 39.75C41.5541 39.75 41.1694 39.5946 40.8813 39.3166L35.1289 33.7654C34.5092 33.1674 34.3419 32.2398 34.7136 31.4629L35.305 30.2272C35.6344 29.5389 36.3267 29.098 37.0896 29.0906L41.4806 29.0479ZM24.0148 31.6187C24.5744 31.3444 25.2299 31.3466 25.7876 31.6247L28.7462 33.1C29.3685 33.4103 29.7849 34.0215 29.846 34.7142L30.098 37.5744C30.2011 38.7437 29.2796 39.75 28.1058 39.75H18.5C17.3954 39.75 16.5 38.8546 16.5 37.75V36.5492C16.5 35.786 16.9344 35.0893 17.6197 34.7533L24.0148 31.6187ZM32.4577 33.4584C33.0402 33.3764 33.6281 33.5673 34.0514 33.9758L36.4709 36.3109C37.7654 37.5602 36.881 39.75 35.0821 39.75H33.0249C31.9887 39.75 31.124 38.9584 31.0327 37.9262L30.8199 35.5196C30.7303 34.5062 31.4502 33.6001 32.4577 33.4584Z" fill="#111111"/>
<path d="M33.1098 35.619C32.7915 35.619 32.4863 35.7454 32.2613 35.9705C32.0362 36.1955 31.9098 36.5007 31.9098 36.819C31.9098 37.1373 32.0362 37.4425 32.2613 37.6675C32.4863 37.8926 32.7915 38.019 33.1098 38.019C33.4281 38.019 33.7333 37.8926 33.9583 37.6675C34.1834 37.4425 34.3098 37.1373 34.3098 36.819C34.3098 36.5007 34.1834 36.1955 33.9583 35.9705C33.7333 35.7454 33.4281 35.619 33.1098 35.619ZM37.3683 23.0415C37.05 23.0415 36.7448 23.1679 36.5198 23.393C36.2947 23.618 36.1683 23.9232 36.1683 24.2415C36.1683 24.3991 36.1993 24.5551 36.2596 24.7007C36.32 24.8463 36.4083 24.9786 36.5198 25.09C36.6312 25.2015 36.7635 25.2899 36.9091 25.3502C37.0547 25.4105 37.2107 25.4415 37.3683 25.4415C37.6866 25.4415 37.9918 25.3151 38.2168 25.09C38.4419 24.865 38.5683 24.5598 38.5683 24.2415C38.5683 23.9232 38.4419 23.618 38.2168 23.393C37.9918 23.1679 37.6866 23.0415 37.3683 23.0415ZM31.1724 27.8721C30.8541 27.8721 30.5489 27.9985 30.3239 28.2236C30.0988 28.4486 29.9724 28.7538 29.9724 29.0721C29.9724 29.3904 30.0988 29.6956 30.3239 29.9206C30.5489 30.1457 30.8541 30.2721 31.1724 30.2721C31.4907 30.2721 31.7959 30.1457 32.0209 29.9206C32.246 29.6956 32.3724 29.3904 32.3724 29.0721C32.3724 28.7538 32.246 28.4486 32.0209 28.2236C31.7959 27.9985 31.4907 27.8721 31.1724 27.8721ZM26.709 34.3305C26.3907 34.3305 26.0855 34.4569 25.8605 34.682C25.6354 34.907 25.509 35.2122 25.509 35.5305C25.509 35.8488 25.6354 36.154 25.8605 36.379C26.0855 36.6041 26.3907 36.7305 26.709 36.7305C27.0273 36.7305 27.3325 36.6041 27.5575 36.379C27.7826 36.154 27.909 35.8488 27.909 35.5305C27.909 35.2122 27.7826 34.907 27.5575 34.682C27.3325 34.4569 27.0273 34.3305 26.709 34.3305Z" fill="#111111"/>
</g>
<defs>
<clipPath id="clip0_4_9260">
<rect width="30" height="30" fill="white" transform="translate(15 15)"/>
</clipPath>
</defs>
</svg>
