<svg width="60" height="60" viewBox="0 0 60 60" fill="none" xmlns="http://www.w3.org/2000/svg">
<rect width="60" height="60" rx="30" fill="#D7CFFF"/>
<path d="M36.25 42.5L31.0413 37.5M23.75 42.5L28.9587 37.5M30 37.5V43.75M17.5 27.5C17.5 23.1163 17.5 20.925 18.635 19.45C18.8433 19.1792 19.0742 18.9325 19.3275 18.71C20.7125 17.5 22.765 17.5 26.875 17.5H33.125C37.235 17.5 39.2888 17.5 40.6725 18.71C40.9258 18.9333 41.1567 19.18 41.365 19.45C42.5 20.925 42.5 23.1163 42.5 27.5C42.5 31.8837 42.5 34.075 41.365 35.55C41.1598 35.8191 40.9277 36.0666 40.6725 36.2888C39.2875 37.5 37.235 37.5 33.125 37.5H26.875C22.7663 37.5 20.7112 37.5 19.3275 36.29C19.0722 36.0674 18.8402 35.8195 18.635 35.55C17.5 34.075 17.5 31.8837 17.5 27.5Z" stroke="#111111" stroke-width="1.5" stroke-linecap="round" stroke-linejoin="round"/>
<path d="M30 30.625C32.0711 30.625 33.75 28.9461 33.75 26.875C33.75 24.8039 32.0711 23.125 30 23.125C27.9289 23.125 26.25 24.8039 26.25 26.875C26.25 28.9461 27.9289 30.625 30 30.625Z" stroke="#111111" stroke-width="1.5" stroke-linecap="round" stroke-linejoin="round"/>
</svg>
