<svg width="105" height="103" viewBox="0 0 105 103" fill="none" xmlns="http://www.w3.org/2000/svg">
<g opacity="0.2">
<path d="M40.1933 46.6504C39.76 46.6075 39.24 46.6075 38.7633 46.6504C28.45 46.3071 20.26 37.9383 20.26 27.6383C20.26 17.1237 28.84 8.58331 39.5 8.58331C50.1167 8.58331 58.74 17.1237 58.74 27.6383C58.6967 37.9383 50.5067 46.3071 40.1933 46.6504Z" stroke="#AB9AFF" stroke-width="5" stroke-linecap="round" stroke-linejoin="round"/>
<path d="M71.61 17.1667C80.0167 17.1667 86.7767 23.9046 86.7767 32.1875C86.7767 40.2988 80.2767 46.9079 72.1733 47.2084C71.8267 47.1654 71.4367 47.1654 71.0467 47.2084" stroke="#AB9AFF" stroke-width="5" stroke-linecap="round" stroke-linejoin="round"/>
<path d="M18.5267 62.4867C8.03999 69.4392 8.03999 80.7692 18.5267 87.6788C30.4433 95.5754 49.9867 95.5754 61.9033 87.6788C72.39 80.7263 72.39 69.3963 61.9033 62.4867C50.03 54.6329 30.4867 54.6329 18.5267 62.4867Z" stroke="#AB9AFF" stroke-width="5" stroke-linecap="round" stroke-linejoin="round"/>
<path d="M79.9733 85.8333C83.0933 85.1896 86.04 83.945 88.4667 82.0996C95.2267 77.0783 95.2267 68.7954 88.4667 63.7741C86.0833 61.9716 83.18 60.77 80.1033 60.0833" stroke="#292D32" stroke-width="1.5" stroke-linecap="round" stroke-linejoin="round"/>
</g>
</svg>
