<svg width="105" height="103" viewBox="0 0 105 103" fill="none" xmlns="http://www.w3.org/2000/svg">
<g opacity="0.2">
<path d="M35.1667 94.4167H69.8333C87.2533 94.4167 90.3733 87.5071 91.2833 79.0954L94.5333 44.7621C95.7033 34.2904 92.67 25.75 74.1667 25.75H30.8333C12.33 25.75 9.29667 34.2904 10.4667 44.7621L13.7167 79.0954C14.6267 87.5071 17.7467 94.4167 35.1667 94.4167Z" stroke="#AB9AFF" stroke-width="5" stroke-miterlimit="10" stroke-linecap="round" stroke-linejoin="round"/>
<path d="M35.1667 25.75V22.3166C35.1667 14.7204 35.1667 8.58331 49.0333 8.58331H55.9667C69.8333 8.58331 69.8333 14.7204 69.8333 22.3166V25.75" stroke="#AB9AFF" stroke-width="5" stroke-miterlimit="10" stroke-linecap="round" stroke-linejoin="round"/>
<path d="M61.1667 55.7917V60.0833C61.1667 60.1262 61.1667 60.1263 61.1667 60.1692C61.1667 64.8471 61.1233 68.6667 52.5 68.6667C43.92 68.6667 43.8333 64.89 43.8333 60.2121V55.7917C43.8333 51.5 43.8333 51.5 48.1667 51.5H56.8333C61.1667 51.5 61.1667 51.5 61.1667 55.7917Z" stroke="#AB9AFF" stroke-width="5" stroke-miterlimit="10" stroke-linecap="round" stroke-linejoin="round"/>
<path d="M94.3167 47.2083C84.3067 54.4183 72.8667 58.71 61.1667 60.1692" stroke="#AB9AFF" stroke-width="1.5" stroke-miterlimit="10" stroke-linecap="round" stroke-linejoin="round"/>
<path d="M11.8533 48.3671C21.6033 54.9762 32.61 58.9675 43.8333 60.2121" stroke="#AB9AFF" stroke-width="1.5" stroke-miterlimit="10" stroke-linecap="round" stroke-linejoin="round"/>
</g>
</svg>
